<svg width="80" height="18" viewBox="0 0 80 18" fill="none" xmlns="http://www.w3.org/2000/svg">
<g clip-path="url(#clip0_4451_1109)">
<path d="M7.98437 17.4813C5.7381 17.4813 3.49182 17.4821 1.24554 17.4797C1.0477 17.4794 0.848248 17.4705 0.652578 17.4442C0.282077 17.3947 0.0755823 17.1793 0.0368814 16.8112C0.0160425 16.6144 0.00196938 16.4158 0.00169875 16.218C-0.000466338 13.6198 -0.000466338 11.0217 0.00115748 8.42365C0.00142811 8.19848 0.0276798 7.97277 0.0225377 7.74787C0.0127948 7.29726 0.227409 6.95734 0.539722 6.66614C1.49372 5.77628 2.45339 4.89239 3.40684 4.00173C4.47693 3.00173 5.54161 1.99605 6.6109 0.995237C6.89236 0.731906 7.1795 0.474802 7.46692 0.217968C7.79032 -0.0710702 8.18356 -0.0729646 8.50292 0.223923C9.87205 1.49537 11.2368 2.77169 12.6052 4.04394C13.514 4.88887 14.4301 5.72595 15.3343 6.57575C15.508 6.73894 15.6588 6.93352 15.7895 7.13353C15.98 7.425 15.9649 7.77115 15.9703 8.10078C15.9831 8.87642 15.9749 9.65233 15.9749 10.4282C15.9749 12.3317 15.9768 14.235 15.9727 16.1387C15.9722 16.3809 15.9492 16.6236 15.9216 16.8647C15.8864 17.173 15.6807 17.3903 15.3697 17.4377C15.1657 17.4689 14.9571 17.4797 14.7502 17.48C12.4947 17.4823 10.2395 17.4813 7.98437 17.4813ZM8.01306 14.0204C9.36597 14.0204 10.7189 14.0212 12.0717 14.0202C12.5554 14.0199 12.5557 14.0177 12.5559 13.5506C12.5559 12.0263 12.5532 10.5021 12.5592 8.97791C12.56 8.78197 12.5026 8.64341 12.3565 8.50836C10.9679 7.22609 9.58576 5.9365 8.20169 4.64909C8.00115 4.46262 7.96381 4.4637 7.76028 4.6545C6.44743 5.88535 5.13891 7.12081 3.81793 8.34246C3.5611 8.58008 3.44337 8.82825 3.4477 9.18468C3.46529 10.6275 3.45501 12.0708 3.45501 13.5138C3.45501 13.586 3.45366 13.6583 3.45934 13.73C3.47639 13.9463 3.52727 13.9995 3.7381 14.0155C3.83688 14.0231 3.93648 14.0202 4.03552 14.0202C5.36137 14.0206 6.68722 14.0206 8.01306 14.0204Z" fill="white"/>
<path d="M62.6189 6.27731C62.7065 6.16824 62.7909 6.05646 62.8818 5.9501C63.271 5.49543 63.7761 5.22318 64.3249 5.00613C65.1219 4.69138 65.9539 4.68434 66.7725 4.78529C67.8061 4.91275 68.7063 5.37175 69.3674 6.20315C69.6727 6.58718 69.8998 7.02507 70.0648 7.49463C70.3357 8.2654 70.4589 9.05402 70.4559 9.87077C70.4475 12.2524 70.4529 14.634 70.4529 17.0156C70.4529 17.0516 70.4532 17.0878 70.4526 17.1238C70.4491 17.451 70.4327 17.4757 70.0973 17.4773C69.1861 17.4819 68.2751 17.4819 67.3638 17.4779C67.014 17.4765 66.9901 17.4456 66.9901 17.0808C66.9896 14.9068 66.9901 12.7325 66.9893 10.5585C66.9893 10.306 67.0028 10.0511 66.9736 9.80123C66.8978 9.15715 66.6757 8.58691 66.1225 8.18529C65.8746 8.00504 65.5904 7.91492 65.3076 7.87081C64.6729 7.77175 64.051 7.82967 63.5051 8.22237C63.1796 8.45646 62.9422 8.75849 62.7779 9.12845C62.5606 9.61697 62.5198 10.1241 62.5225 10.6507C62.5333 12.7707 62.5271 14.8909 62.5271 17.0107C62.5271 17.083 62.5208 17.1556 62.5276 17.2273C62.545 17.4069 62.448 17.4697 62.2876 17.4732C62.2153 17.4748 62.1433 17.4797 62.0713 17.4797C61.2234 17.4803 60.3752 17.4803 59.5273 17.4797C59.4554 17.4797 59.3831 17.4757 59.3111 17.4738C59.1476 17.4694 59.0594 17.3942 59.0675 17.2221C59.0713 17.1412 59.0664 17.0597 59.0664 16.9785C59.0664 13.1536 59.0664 9.32846 59.0662 5.50355C59.0662 4.95011 59.0716 5.02697 59.5563 5.02453C60.4224 5.02047 61.2884 5.02236 62.1544 5.02398C62.5219 5.0248 62.5254 5.02994 62.5265 5.40748C62.5276 5.67649 62.5268 5.94523 62.5268 6.21425C62.5577 6.23563 62.5883 6.25646 62.6189 6.27731Z" fill="white"/>
<path d="M27.569 13.2221C27.8155 12.5498 28.0423 11.9512 28.2545 11.3474C28.4434 10.8096 28.609 10.264 28.7979 9.72629C28.9862 9.18962 29.1957 8.66025 29.3862 8.12385C29.5375 7.69787 29.668 7.26485 29.8182 6.8386C29.9633 6.42777 30.1216 6.02183 30.275 5.61425C30.3284 5.47298 30.3995 5.3363 30.4355 5.19097C30.474 5.03644 30.5771 5.02507 30.6997 5.02507C30.9161 5.02507 31.1327 5.02399 31.3489 5.02399C32.1427 5.02372 32.9362 5.02372 33.73 5.02426C33.8112 5.02426 33.8928 5.02128 33.9733 5.02886C34.1402 5.04456 34.1711 5.08731 34.1159 5.23265C33.9919 5.55741 33.8644 5.88055 33.7367 6.20369C33.5465 6.68434 33.3557 7.16472 33.1633 7.64483C32.9643 8.14144 32.7611 8.63644 32.5641 9.13387C32.3736 9.61507 32.1911 10.0997 32.0009 10.5812C31.7649 11.1782 31.5222 11.7723 31.2869 12.3695C31.098 12.8494 30.9175 13.3327 30.73 13.8134C30.5486 14.2784 30.3635 14.7419 30.18 15.2059C30.0233 15.6021 29.8663 15.9983 29.7089 16.3943C29.5808 16.716 29.455 17.0386 29.3191 17.3572C29.2992 17.404 29.2328 17.4459 29.1798 17.4605C29.1031 17.4814 29.019 17.4795 28.9381 17.4797C28.0363 17.4808 27.1343 17.4824 26.2325 17.4792C25.8629 17.4778 25.848 17.4519 25.7132 17.1008C25.5254 16.6113 25.3205 16.1281 25.1275 15.6405C24.9348 15.1534 24.7513 14.6624 24.5581 14.1755C24.3318 13.6053 24.0986 13.0378 23.8705 12.4684C23.6788 11.9904 23.4907 11.5111 23.3007 11.0326C23.153 10.6605 23.0044 10.2887 22.8567 9.91652C22.6631 9.42886 22.4699 8.94091 22.2767 8.45294C22.0929 7.98854 21.91 7.52385 21.7249 7.05998C21.5265 6.56364 21.3253 6.06811 21.1267 5.57203C21.0802 5.45619 21.0287 5.34117 20.996 5.22128C20.9641 5.10437 21.0114 5.02805 21.1454 5.02778C21.2266 5.02778 21.3078 5.02453 21.3887 5.02453C22.3267 5.02426 23.2645 5.02426 24.2025 5.02426C24.7023 5.02426 24.6934 5.02724 24.845 5.49273C25.002 5.97555 25.1819 6.45051 25.3457 6.93116C25.5292 7.46973 25.6993 8.01262 25.8866 8.54957C26.0772 9.09652 26.2856 9.63724 26.4783 10.1837C26.6266 10.6039 26.7608 11.0294 26.9043 11.4515C27.0017 11.7385 27.1037 12.0235 27.2044 12.3092C27.2724 12.5019 27.3384 12.6954 27.4114 12.8862C27.449 12.9833 27.4999 13.0754 27.569 13.2221Z" fill="white"/>
<path d="M46.1561 13.1738C46.2405 12.9643 46.3309 12.7567 46.4083 12.5446C46.5304 12.2104 46.6457 11.8734 46.7601 11.5364C46.9033 11.1146 47.0384 10.69 47.1853 10.2696C47.2936 9.96029 47.4197 9.65714 47.5301 9.34837C47.6319 9.06339 47.7207 8.77381 47.8197 8.48775C47.9304 8.16867 48.0484 7.85203 48.1596 7.53321C48.259 7.24877 48.3509 6.96164 48.4508 6.6772C48.6072 6.23227 48.8069 5.7979 48.913 5.34133C48.9894 5.01251 49.1729 5.0209 49.417 5.02226C50.4181 5.02794 51.4194 5.02361 52.4205 5.02551C52.7242 5.02605 52.7669 5.1075 52.6532 5.38139C52.4451 5.88342 52.2516 6.39167 52.0502 6.89668C51.8684 7.35298 51.6838 7.80845 51.5006 8.26448C51.3047 8.75243 51.1095 9.24065 50.9123 9.72809C50.7149 10.2158 50.513 10.7013 50.3174 11.1895C50.1285 11.6615 49.9469 12.1368 49.759 12.6092C49.5188 13.2136 49.2722 13.8152 49.0337 14.4203C48.8448 14.9 48.6668 15.3838 48.4795 15.8639C48.3014 16.3203 48.1228 16.7765 47.9342 17.2285C47.866 17.3919 47.751 17.4864 47.5436 17.4839C46.6148 17.4724 45.6851 17.4634 44.7569 17.4867C44.4045 17.4956 44.3548 17.2526 44.2641 17.0312C43.9607 16.2913 43.6633 15.5489 43.3699 14.8049C43.1382 14.2174 42.9209 13.6241 42.6876 13.0372C42.4576 12.4591 42.2111 11.8874 41.9805 11.3094C41.7894 10.8306 41.6146 10.3454 41.4262 9.86556C41.2865 9.50944 41.1339 9.15838 40.9926 8.80277C40.795 8.30643 40.6045 7.8071 40.4075 7.31049C40.2633 6.9462 40.1128 6.5841 39.9666 6.22036C39.8305 5.88126 39.6947 5.54188 39.5634 5.2006C39.5285 5.10967 39.5559 5.03876 39.6678 5.03146C39.7398 5.02685 39.8121 5.02496 39.8841 5.02496C40.8762 5.02469 41.8684 5.02415 42.8606 5.02496C43.2173 5.02523 43.2476 5.05825 43.3653 5.40791C43.5215 5.87178 43.6943 6.32997 43.8538 6.79248C44.0016 7.22118 44.1347 7.65501 44.2857 8.08261C44.476 8.62036 44.6822 9.15243 44.8735 9.68963C45.0232 10.11 45.1563 10.5362 45.3047 10.9573C45.4911 11.487 45.6863 12.0139 45.8765 12.5424C45.9491 12.7438 46.0181 12.9468 46.0887 13.1489C46.1115 13.157 46.1339 13.1654 46.1561 13.1738Z" fill="white"/>
<path d="M73.1074 11.4883C73.1074 10.5864 73.1082 9.68427 73.1069 8.78228C73.1066 8.48512 73.1026 8.48052 72.804 8.47917C72.308 8.47673 71.8119 8.48052 71.3158 8.477C71.073 8.47538 71.0555 8.45941 71.0549 8.21204C71.052 7.24696 71.052 6.28188 71.0546 5.31652C71.0555 5.05536 71.0858 5.02775 71.358 5.02532C71.8452 5.02125 72.3323 5.02585 72.8192 5.02179C73.0998 5.01963 73.1061 5.01151 73.1066 4.72897C73.108 3.73682 73.1066 2.74467 73.1077 1.75224C73.108 1.42721 73.1096 1.42504 73.4394 1.4245C74.3415 1.42342 75.2435 1.42315 76.1456 1.4245C76.4798 1.42504 76.4985 1.44209 76.4992 1.77741C76.5017 2.67944 76.5004 3.58147 76.5007 4.4835C76.5007 4.5647 76.4982 4.64615 76.5026 4.72707C76.5163 4.98255 76.5523 5.02017 76.8135 5.02179C77.3818 5.02504 77.9499 5.02315 78.5182 5.02342C78.7077 5.02342 78.8971 5.02315 79.0866 5.02342C79.5688 5.02423 79.5775 5.03154 79.5783 5.52788C79.5796 6.28567 79.5789 7.04317 79.5786 7.80095C79.5786 7.91814 79.5808 8.0356 79.5754 8.15278C79.5615 8.44723 79.5323 8.47701 79.2416 8.47754C78.4479 8.47917 77.6541 8.47754 76.8603 8.47862C76.5369 8.47916 76.5023 8.50948 76.5017 8.83451C76.4995 10.2055 76.4963 11.5765 76.5055 12.9477C76.5074 13.2345 76.5386 13.5258 76.5954 13.8069C76.6597 14.126 76.8858 14.3276 77.181 14.455C77.4438 14.5684 77.7204 14.5842 78.0005 14.582C78.2801 14.5798 78.5602 14.5863 78.8392 14.5706C78.9897 14.562 79.138 14.5149 79.2871 14.4846C79.4782 14.4458 79.5356 14.4818 79.5662 14.671C79.5775 14.7417 79.5777 14.8147 79.5777 14.887C79.5786 15.5184 79.5802 16.1498 79.5772 16.7812C79.5756 17.1514 79.5515 17.1825 79.2016 17.3035C78.7675 17.4537 78.3237 17.5544 77.8611 17.5655C77.7453 17.5682 77.6305 17.6099 77.5147 17.6126C77.2286 17.6191 76.9423 17.6174 76.6562 17.6104C76.5494 17.6077 76.4435 17.572 76.3366 17.5655C75.6636 17.5252 75.0769 17.2743 74.5301 16.8857C74.0086 16.5146 73.6408 16.0261 73.4211 15.4447C73.2676 15.0386 73.1515 14.5974 73.1304 14.1666C73.0865 13.2759 73.1171 12.3814 73.1171 11.4883C73.1142 11.4883 73.1107 11.4883 73.1074 11.4883Z" fill="white"/>
<path d="M57.1436 11.243C57.1436 13.1462 57.1436 15.0495 57.1434 16.9526C57.1434 17.0517 57.1422 17.151 57.1377 17.2501C57.1322 17.3673 57.0643 17.4311 56.9514 17.4444C56.88 17.4525 56.8074 17.452 56.7354 17.452C55.8516 17.4525 54.9677 17.453 54.0836 17.452C53.6916 17.4514 53.69 17.4492 53.69 17.0622C53.6897 13.5445 53.6898 10.0268 53.6898 6.50905C53.6898 6.13016 53.6879 5.75127 53.6908 5.37266C53.693 5.07198 53.7195 5.0414 54.0139 5.04058C54.952 5.03761 55.89 5.03788 56.828 5.04058C57.1255 5.0414 57.1425 5.06089 57.1428 5.37158C57.1441 6.99512 57.1436 8.61866 57.1436 10.2422C57.1436 10.5757 57.1436 10.9093 57.1436 11.243Z" fill="white"/>
<path d="M35.1635 11.2413C35.1635 9.37534 35.1635 7.50957 35.1635 5.64354C35.1635 5.57155 35.1632 5.49928 35.1635 5.4273C35.1651 5.05031 35.1749 5.0392 35.5648 5.03812C36.1507 5.0365 36.7367 5.03758 37.3226 5.03785C37.6382 5.03812 37.9538 5.0338 38.2691 5.04137C38.4944 5.04678 38.5294 5.08927 38.5389 5.31742C38.5415 5.38048 38.5396 5.44354 38.5396 5.5066C38.5396 9.34665 38.5396 13.1867 38.5396 17.0267C38.5396 17.4506 38.5393 17.4509 38.1088 17.4511C37.2525 17.4514 36.3959 17.4516 35.5397 17.4508C35.1643 17.4506 35.1632 17.4492 35.1632 17.0828C35.1632 15.1356 35.1635 13.1884 35.1635 11.2413Z" fill="white"/>
<path d="M57.4398 2.07342C57.5163 3.2017 56.4771 4.14784 55.4032 4.11401C54.217 4.07666 53.3707 3.24636 53.3527 2.05258C53.3361 0.968684 54.2019 0.0127959 55.4608 7.60627e-05C56.4433 -0.00966685 57.5283 0.917802 57.4398 2.07342Z" fill="white"/>
<path d="M36.8647 0.0123952C37.9675 -0.0633828 38.9361 0.991825 38.9094 2.08086C38.8807 3.25109 37.9808 4.11794 36.8412 4.11307C35.728 4.10847 34.8167 3.22998 34.7905 2.05489C34.7673 1.01808 35.7391 -0.0555344 36.8647 0.0123952Z" fill="white"/>
<path d="M18.9834 17.4497C17.8567 17.5252 16.9008 16.48 16.9225 15.424C16.9469 14.2359 17.817 13.3679 18.9929 13.3571C20.0914 13.3471 21.0088 14.1763 21.0302 15.4462C21.0476 16.477 20.1377 17.5212 18.9834 17.4497Z" fill="white"/>
</g>
<defs>
<clipPath id="clip0_4451_1109">
<rect width="79.5789" height="18" fill="white"/>
</clipPath>
</defs>
</svg>
