<svg width="68" height="80" viewBox="0 0 68 80" fill="none" xmlns="http://www.w3.org/2000/svg">
<path d="M57.592 15.0591L33.1366 20.5819C32.8916 20.6283 32.64 20.6257 32.396 20.5744C32.152 20.523 31.9205 20.4239 31.7146 20.2826C31.5088 20.1414 31.3326 19.9608 31.1963 19.7511C31.0599 19.5415 30.9659 19.3069 30.9198 19.0607C30.8199 18.5526 30.9179 18.0253 31.1936 17.5876C31.4693 17.1499 31.9017 16.8353 32.4015 16.7086L56.7319 11.214C57.2394 11.0994 57.7713 11.1921 58.2108 11.4716C58.6503 11.7511 58.9613 12.1946 59.0753 12.7044C59.1894 13.2143 59.0972 13.7488 58.819 14.1904C58.5408 14.632 58.0995 14.9445 57.592 15.0591Z" fill="#E2B95D"/>
<path d="M37.5087 4.26885L28.7269 11.913C28.3337 12.2551 27.8214 12.4264 27.3027 12.3891C26.7839 12.3517 26.3011 12.1088 25.9605 11.7138C25.62 11.3188 25.4495 10.8041 25.4867 10.2828C25.5239 9.76156 25.7656 9.27648 26.1587 8.9343L34.9406 1.29019C35.3337 0.948001 35.846 0.77674 36.3648 0.814082C36.8836 0.851425 37.3663 1.09431 37.7069 1.4893C38.0474 1.8843 38.2179 2.39905 38.1807 2.92032C38.1436 3.44159 37.9018 3.92667 37.5087 4.26885Z" fill="#E2B95D"/>
<path d="M43.9386 32.2005L32.4311 30.5873C31.916 30.5151 31.4505 30.2402 31.1371 29.8231C30.8237 29.4061 30.688 28.881 30.7598 28.3634C30.8317 27.8458 31.1053 27.3781 31.5203 27.0632C31.9354 26.7483 32.458 26.6119 32.9731 26.6841L44.4806 28.2973C44.9957 28.3696 45.4612 28.6444 45.7746 29.0615C46.088 29.4785 46.2237 30.0036 46.1519 30.5212C46.08 31.0388 45.8064 31.5065 45.3913 31.8214C44.9763 32.1364 44.4537 32.2727 43.9386 32.2005Z" fill="#E2B95D"/>
<path d="M60.135 58.6942L50.7085 57.6128C48.4447 57.3517 46.218 58.1348 44.6222 59.7383L37.7936 66.5995C27.2909 61.2298 18.6809 52.616 13.3368 42.0258L20.2025 35.1273C21.7983 33.5239 22.5777 31.2865 22.3179 29.0119L21.2417 19.615C20.7963 15.8488 17.6418 13.0148 13.8564 13.0148H7.43602C3.24237 13.0148 -0.246151 16.52 0.013633 20.7337C1.98057 52.5787 27.328 78.01 58.9845 79.9863C63.1781 80.2474 66.6667 76.7422 66.6667 72.5285V66.0774C66.7038 62.3112 63.8833 59.1416 60.135 58.6942Z" fill="white"/>
<path d="M50.594 58.6062L50.5946 58.6062L60.0164 59.6871C60.0171 59.6872 60.0178 59.6873 60.0185 59.6874C63.2665 60.0762 65.6987 62.8195 65.6667 66.0676V66.0774V72.5285C65.6667 76.2081 62.6229 79.2109 59.0466 78.9883C27.8969 77.0435 2.94776 52.0168 1.01173 20.672C0.789406 17.0659 3.78622 14.0148 7.43602 14.0148H13.8564C17.1281 14.0148 19.8611 16.4624 20.2484 19.7307C20.2484 19.7313 20.2485 19.7318 20.2486 19.7324L21.3244 29.1253C21.3244 29.1255 21.3244 29.1256 21.3244 29.1257C21.5498 31.0997 20.8739 33.0351 19.4937 34.4219L12.628 41.3204L12.1189 41.832L12.444 42.4764C17.8842 53.2568 26.6479 62.0242 37.3384 67.4899L37.9878 67.8219L38.5024 67.3049L45.331 60.4437C46.7109 59.0571 48.6343 58.3802 50.594 58.6062Z" stroke="#E2B95D" stroke-width="2"/>
</svg>
