<svg width="28" height="8" viewBox="0 0 28 8" fill="none" xmlns="http://www.w3.org/2000/svg">
<g clip-path="url(#clip0_6285_1046)">
<path fill-rule="evenodd" clip-rule="evenodd" d="M5.25 3.28612C5.14968 3.52087 4.99937 3.72987 4.81 3.89795C5.0998 4.04516 5.34175 4.27468 5.50674 4.55889C5.67173 4.84311 5.75273 5.16991 5.74 5.49999C5.74 6.75509 4.75 7.5408 3.16 7.5408H0V0.622437H3.07C4.48 0.622437 5.39 1.37754 5.39 2.5408C5.39815 2.79677 5.35032 3.05137 5.25 3.28612ZM2.93 2.24489H1.64V3.34693H2.85C3.43 3.34693 3.74 3.11223 3.74 2.76529C3.74 2.41835 3.46 2.24489 2.93 2.24489ZM1.64 6.02039H3.17L3.2 5.96937C3.8 5.96937 4.11 5.7755 4.11 5.38774C4.11 5.24488 4.11 4.81631 3.11 4.81631H1.64V6.02039Z" fill="white"/>
<path d="M8.23999 0.622437H9.89999V7.5306H8.23999V0.622437Z" fill="white"/>
<path d="M19.2 0.622437H17.25L15.84 2.68366L14.45 0.622437H12.47L14.84 4.0306L12.38 7.5408H14.32L15.82 5.35713L17.3 7.5408H19.28L16.83 4.01019L19.2 0.622437Z" fill="white"/>
<path d="M24.13 3.18366L25.73 0.622437H27.66L24.95 4.81631V7.5408H23.29V4.83672L20.58 0.622437H22.55L24.13 3.18366Z" fill="white"/>
</g>
<defs>
<clipPath id="clip0_6285_1046">
<rect width="28" height="8" fill="white"/>
</clipPath>
</defs>
</svg>
