<svg width="188" height="12" viewBox="0 0 188 12" fill="none" xmlns="http://www.w3.org/2000/svg">
<g clip-path="url(#clip0_6268_776)">
<path d="M35.9923 0.247897H34.0749L29.3648 11.7327H31.379L32.2931 9.37766H37.7702L38.7076 11.7327H40.6985L35.9923 0.247897ZM32.9283 7.77017L35.0355 2.44803L37.1388 7.77017H32.9283ZM155.69 10.164C156.794 11.295 158.235 11.8838 160.017 11.9303C161.837 11.8799 163.247 11.2912 164.25 10.1601C165.254 9.02905 165.761 7.65397 165.777 6.02711V5.40736H159.796V7.04583H163.964C163.778 8.00258 163.348 8.76952 162.678 9.35442C162.008 9.93931 161.121 10.2414 160.021 10.2569C158.75 10.2259 157.72 9.80761 156.937 8.99806C156.155 8.1885 155.748 7.17753 155.725 5.96126C155.744 4.75274 156.143 3.73789 156.922 2.92446C157.7 2.10716 158.727 1.68495 160.005 1.65009C160.842 1.65784 161.578 1.85539 162.205 2.24661C162.833 2.63783 163.336 3.18786 163.712 3.89283L165.223 2.98644C164.72 2.09151 163.991 1.34471 163.108 0.82117C162.209 0.282759 161.175 0.0077424 160.005 -0.00775146C158.231 0.0348567 156.794 0.615877 155.694 1.73531C154.594 2.85474 154.028 4.26081 153.994 5.95739C154.025 7.62685 154.594 9.02517 155.694 10.1562L155.69 10.164ZM179.493 5.1091V6.72046H173.214V10.0478H179.493V11.7327H171.32V0.247897H179.493V1.93286H173.214V5.1091H179.493ZM145.03 0.247897H143.113L138.403 11.7327H140.417L141.331 9.37766H146.808L147.746 11.7327H149.737L145.026 0.247897H145.03ZM141.966 7.77017L144.074 2.44803L146.177 7.77017H141.966ZM131.26 11.7327V3.73014L127.944 8.05681H127.259L123.966 3.78825V11.7327H122.072V0.247897H123.525L127.604 5.60878L131.698 0.247897H133.116L133.131 11.7327H131.26ZM113.496 0.247897H115.391V11.7327H113.496V0.247897ZM96.9877 7.73144V7.6346C98.4635 7.08069 99.4203 5.87604 99.4203 4.09425C99.4203 1.70045 97.716 0.247897 95.0161 0.247897H90.2905V11.7327H92.1846V7.94448H94.9232C95.8373 9.20723 96.7476 10.47 97.6617 11.7327H99.7457V11.4655L96.9916 7.73531L96.9877 7.73144ZM95.0355 6.25952H92.1846V1.93286H94.9232C96.4532 1.93286 97.4526 2.6417 97.4526 4.11362C97.4526 5.58553 96.4377 6.25952 95.0394 6.25952H95.0355ZM65.9923 0.247897H61.2666V11.7327H63.1608V8.01807H65.9574C68.634 8.01807 70.3964 6.60038 70.3964 4.09425C70.3964 1.58812 68.6921 0.247897 65.9923 0.247897ZM65.9148 6.35635H63.1608V1.93286H65.8954C67.4254 1.93286 68.4403 2.6417 68.4403 4.11362C68.4403 5.663 67.4254 6.35635 65.9148 6.35635ZM52.6791 7.73144V7.6346C54.1549 7.08069 55.1117 5.87604 55.1117 4.09425C55.1117 1.70045 53.4074 0.247897 50.7076 0.247897H45.9819V11.7327H47.876V7.94448H50.6146C51.5287 9.20723 52.439 10.47 53.3531 11.7327H55.4371V11.4655L52.683 7.73531L52.6791 7.73144ZM50.7269 6.25952H47.876V1.93286H50.6146C52.1446 1.93286 53.1401 2.6417 53.1401 4.11362C53.1401 5.58553 52.1252 6.25952 50.7269 6.25952ZM24.093 0.247897V11.7327H22.1988V6.85216H16.3809V11.7327H14.4868V0.247897H16.3809V5.24467H22.1988V0.247897H24.093ZM0 10.5629C0.344739 10.0865 0.689477 9.60619 1.03422 9.12976C1.03422 9.12976 2.37444 10.2376 4.2918 10.2376C5.84119 10.2376 6.5113 9.58683 6.5113 8.64945C6.5113 7.77017 5.97289 7.3286 3.9122 6.69722C1.34022 5.93415 0.0968367 5.07424 0.0968367 3.27308C0.0968367 1.30148 1.58812 -4.53135e-06 4.3073 -4.53135e-06C7.02647 -4.53135e-06 8.30471 1.16591 8.30471 1.16591C7.95997 1.68108 7.61524 2.20012 7.2705 2.7153C7.2705 2.7153 6.18205 1.75468 4.3073 1.75468C3.00581 1.75468 2.18076 2.26985 2.18076 3.19173C2.18076 3.97417 2.79664 4.36152 4.72563 4.93479C7.50291 5.71723 8.61459 6.73208 8.61459 8.51388C8.61459 10.4661 7.21627 11.9961 4.34216 11.9961C1.46804 11.9961 0 10.5629 0 10.5629ZM84.306 5.1091V6.72046H78.0271V10.0478H84.306V11.7327H76.133V0.247897H84.306V1.93286H78.0271V5.1091H84.306ZM185.307 4.19883C184.094 4.19883 183.374 3.28082 183.374 2.19625C183.374 1.11168 184.094 0.193669 185.307 0.193669C186.519 0.193669 187.255 1.10393 187.255 2.19625C187.255 3.28857 186.527 4.19883 185.307 4.19883ZM185.307 0.565522C184.381 0.565522 183.761 1.23563 183.761 2.19625C183.761 3.15687 184.381 3.82698 185.307 3.82698C186.232 3.82698 186.872 3.12201 186.872 2.19625C186.872 1.27049 186.252 0.565522 185.307 0.565522ZM185.376 1.29373C185.814 1.29373 186.097 1.53389 186.097 1.90574C186.097 2.15364 185.961 2.34344 185.744 2.43641L186.112 2.95158V3.02905H185.795L185.415 2.50613H184.9V3.02905H184.59V1.29373H185.373H185.376ZM184.904 1.59586V2.21562H185.369C185.609 2.21562 185.771 2.11103 185.771 1.90574C185.771 1.70045 185.624 1.59586 185.376 1.59586H184.904Z" fill="black"/>
</g>
<defs>
<clipPath id="clip0_6268_776">
<rect width="187.255" height="12" fill="white"/>
</clipPath>
</defs>
</svg>
