<svg width="98" height="22" viewBox="0 0 98 22" fill="none" xmlns="http://www.w3.org/2000/svg">
<g clip-path="url(#clip0_4451_132)">
<path d="M9.75868 21.3657C7.01323 21.3657 4.26778 21.3668 1.52233 21.3638C1.28053 21.3634 1.03675 21.3525 0.797595 21.3205C0.344761 21.2599 0.0923783 20.9966 0.0450773 20.5468C0.0196074 20.3063 0.00240702 20.0635 0.00207624 19.8217C-0.000569969 16.6462 -0.000569969 13.4708 0.00141469 10.2953C0.00174547 10.0201 0.0338309 9.74422 0.0275461 9.46935C0.0156381 8.91861 0.277945 8.50314 0.659661 8.14723C1.82565 7.05963 2.99859 5.97931 4.16392 4.89073C5.47181 3.6685 6.77308 2.43934 8.07999 1.21613C8.424 0.894281 8.77494 0.580042 9.12624 0.266135C9.52151 -0.0871348 10.0021 -0.0894503 10.3925 0.273412C12.0658 1.82741 13.7339 3.38734 15.4064 4.94233C16.5171 5.97502 17.6368 6.99811 18.7419 8.03675C18.9543 8.23621 19.1385 8.47403 19.2983 8.71849C19.5311 9.07473 19.5126 9.4978 19.5192 9.90069C19.5348 10.8487 19.5249 11.797 19.5249 12.7453C19.5249 15.0718 19.5272 17.3981 19.5222 19.7248C19.5215 20.0208 19.4935 20.3175 19.4597 20.6122C19.4167 20.989 19.1654 21.2546 18.7852 21.3125C18.5358 21.3506 18.2808 21.3638 18.0281 21.3641C15.2714 21.367 12.515 21.3657 9.75868 21.3657ZM9.79374 17.1357C11.4473 17.1357 13.1009 17.1368 14.7544 17.1355C15.3455 17.1351 15.3458 17.1325 15.3462 16.5615C15.3462 14.6986 15.3428 12.8356 15.3501 10.9727C15.3511 10.7332 15.281 10.5639 15.1024 10.3988C13.4052 8.83161 11.7159 7.25545 10.0243 5.68194C9.77919 5.45405 9.73354 5.45537 9.48479 5.68857C7.88019 7.19294 6.28088 8.70294 4.66636 10.1961C4.35246 10.4865 4.20857 10.7898 4.21386 11.2254C4.23536 12.9888 4.2228 14.7529 4.2228 16.5166C4.2228 16.6048 4.22114 16.6932 4.22809 16.7808C4.24892 17.0452 4.31111 17.1102 4.56879 17.1298C4.68952 17.1391 4.81125 17.1355 4.93231 17.1355C6.55278 17.1361 8.17327 17.1361 9.79374 17.1357Z" fill="white"/>
<path d="M76.5342 7.67233C76.6413 7.53902 76.7445 7.40241 76.8556 7.27241C77.3313 6.7167 77.9486 6.38395 78.6193 6.11866C79.5935 5.73398 80.6103 5.72537 81.6109 5.84875C82.8741 6.00454 83.9744 6.56554 84.7824 7.58169C85.1555 8.05106 85.4331 8.58626 85.6348 9.16016C85.9659 10.1022 86.1165 11.0661 86.1128 12.0643C86.1026 14.9752 86.1092 17.8861 86.1092 20.7969C86.1092 20.8409 86.1095 20.8852 86.1088 20.9292C86.1045 21.3291 86.0844 21.3592 85.6745 21.3612C84.5608 21.3669 83.4474 21.3669 82.3336 21.3619C81.906 21.3603 81.8768 21.3225 81.8768 20.8766C81.8762 18.2195 81.8768 15.562 81.8759 12.9049C81.8759 12.5963 81.8923 12.2847 81.8567 11.9793C81.764 11.1921 81.4925 10.4952 80.8164 10.0043C80.5134 9.784 80.166 9.67385 79.8204 9.61994C79.0447 9.49887 78.2846 9.56966 77.6174 10.0496C77.2195 10.3357 76.9294 10.7049 76.7286 11.1571C76.463 11.7541 76.4131 12.374 76.4164 13.0176C76.4296 15.6087 76.422 18.2 76.422 20.7909C76.422 20.8793 76.4143 20.968 76.4227 21.0556C76.4439 21.2752 76.3254 21.3519 76.1293 21.3562C76.0409 21.3582 75.9529 21.3642 75.8649 21.3642C74.8286 21.3649 73.7919 21.3649 72.7556 21.3642C72.6677 21.3642 72.5794 21.3592 72.4914 21.3569C72.2915 21.3516 72.1837 21.2596 72.1937 21.0493C72.1983 20.9504 72.1923 20.8508 72.1923 20.7516C72.1923 16.0767 72.1923 11.4015 72.1921 6.72663C72.1921 6.0502 72.1987 6.14414 72.7911 6.14116C73.8496 6.13619 74.908 6.13851 75.9665 6.14049C76.4157 6.14149 76.42 6.14777 76.4213 6.60921C76.4227 6.938 76.4216 7.26646 76.4216 7.59526C76.4594 7.62139 76.4968 7.64685 76.5342 7.67233Z" fill="white"/>
<path d="M33.6954 16.1603C33.9967 15.3386 34.2739 14.607 34.5333 13.869C34.7642 13.2117 34.9666 12.5449 35.1974 11.8877C35.4276 11.2317 35.6837 10.5847 35.9165 9.92911C36.1014 9.40847 36.2609 8.87922 36.4445 8.35825C36.6218 7.85613 36.8153 7.35997 37.0028 6.86182C37.068 6.68915 37.155 6.52211 37.199 6.34448C37.246 6.15561 37.372 6.14171 37.5218 6.14171C37.7864 6.14171 38.0511 6.14039 38.3153 6.14039C39.2855 6.14006 40.2554 6.14006 41.2256 6.14072C41.3248 6.14072 41.4246 6.13708 41.5229 6.14635C41.7269 6.16553 41.7647 6.21779 41.6972 6.39542C41.5457 6.79235 41.3899 7.1873 41.2338 7.58225C41.0013 8.16971 40.7681 8.75684 40.5329 9.34364C40.2898 9.95061 40.0414 10.5556 39.8005 11.1636C39.5677 11.7517 39.3447 12.3441 39.1122 12.9325C38.8237 13.6622 38.5271 14.3884 38.2396 15.1183C38.0087 15.7048 37.7881 16.2955 37.5589 16.883C37.3372 17.4513 37.111 18.0179 36.8867 18.5849C36.6952 19.0691 36.5033 19.5534 36.3109 20.0374C36.1543 20.4306 36.0006 20.8249 35.8345 21.2143C35.8101 21.2715 35.729 21.3228 35.6642 21.3406C35.5705 21.3661 35.4677 21.3637 35.3688 21.3641C34.2666 21.3654 33.1642 21.3673 32.062 21.3634C31.6102 21.3618 31.592 21.3301 31.4272 20.9009C31.1977 20.3027 30.9473 19.7121 30.7114 19.1162C30.4759 18.5208 30.2516 17.9206 30.0155 17.3256C29.7389 16.6287 29.4538 15.9351 29.175 15.2391C28.9408 14.6549 28.7109 14.0691 28.4786 13.4843C28.2981 13.0295 28.1165 12.575 27.9359 12.1202C27.6994 11.5241 27.4632 10.9277 27.2271 10.3313C27.0024 9.76372 26.7789 9.19578 26.5526 8.62882C26.3101 8.02218 26.0643 7.41653 25.8215 6.81021C25.7647 6.66864 25.7018 6.52806 25.6618 6.38153C25.6228 6.23863 25.6806 6.14535 25.8444 6.14503C25.9437 6.14503 26.0429 6.14105 26.1418 6.14105C27.2882 6.14072 28.4344 6.14072 29.5808 6.14072C30.1918 6.14072 30.1809 6.14437 30.3661 6.7133C30.558 7.30341 30.7779 7.88392 30.9781 8.47137C31.2024 9.12963 31.4103 9.79316 31.6392 10.4494C31.8721 11.1179 32.1268 11.7788 32.3623 12.4467C32.5437 12.9603 32.7076 13.4803 32.883 13.9963C33.0021 14.347 33.1268 14.6953 33.2499 15.0445C33.3329 15.2801 33.4136 15.5166 33.5029 15.7498C33.5488 15.8685 33.611 15.981 33.6954 16.1603Z" fill="white"/>
<path d="M56.413 16.1013C56.5161 15.8453 56.6266 15.5916 56.7212 15.3324C56.8705 14.9239 57.0114 14.512 57.1512 14.1001C57.3262 13.5845 57.4913 13.0656 57.6709 12.5518C57.8033 12.1738 57.9574 11.8032 58.0924 11.4258C58.2167 11.0775 58.3252 10.7236 58.4462 10.374C58.5816 9.98399 58.7258 9.59699 58.8617 9.20732C58.9832 8.85968 59.0956 8.50873 59.2176 8.16108C59.4088 7.61728 59.6529 7.08638 59.7826 6.52836C59.8759 6.12647 60.1002 6.13673 60.3986 6.13838C61.6221 6.14533 62.8459 6.14004 64.0694 6.14235C64.4407 6.14301 64.4929 6.24257 64.3539 6.57732C64.0995 7.19091 63.8631 7.81211 63.6169 8.42935C63.3947 8.98703 63.1691 9.54373 62.9451 10.1011C62.7057 10.6975 62.4671 11.2942 62.2261 11.89C61.9849 12.486 61.7381 13.0795 61.499 13.6761C61.2681 14.253 61.0462 14.8339 60.8166 15.4113C60.5229 16.15 60.2215 16.8853 59.9301 17.6249C59.6992 18.2111 59.4816 18.8025 59.2527 19.3893C59.035 19.9471 58.8168 20.5047 58.5862 21.0571C58.5029 21.2569 58.3623 21.3723 58.1088 21.3693C56.9736 21.3552 55.8374 21.3442 54.7029 21.3727C54.2721 21.3835 54.2114 21.0865 54.1005 20.8159C53.7297 19.9116 53.3662 19.0043 53.0076 18.095C52.7245 17.3769 52.4589 16.6518 52.1737 15.9344C51.8926 15.2278 51.5913 14.5291 51.3094 13.8227C51.0759 13.2375 50.8623 12.6444 50.632 12.058C50.4613 11.6227 50.2747 11.1936 50.1021 10.759C49.8606 10.1524 49.6277 9.54207 49.387 8.9351C49.2106 8.48987 49.0268 8.0473 48.8481 7.60272C48.6817 7.18827 48.5157 6.77348 48.3553 6.35636C48.3126 6.24522 48.346 6.15855 48.4829 6.14962C48.5709 6.144 48.6593 6.14168 48.7473 6.14168C49.9598 6.14136 51.1725 6.1407 52.3851 6.14168C52.8211 6.14202 52.8581 6.18237 53.0021 6.60974C53.1929 7.17669 53.4042 7.73669 53.5991 8.30199C53.7797 8.82595 53.9424 9.35618 54.1269 9.87881C54.3596 10.5361 54.6115 11.1864 54.8454 11.8429C55.0284 12.3567 55.1911 12.8776 55.3724 13.3923C55.6003 14.0397 55.8388 14.6837 56.0713 15.3297C56.16 15.5758 56.2443 15.8239 56.3307 16.071C56.3584 16.0808 56.3859 16.0911 56.413 16.1013Z" fill="white"/>
<path d="M89.3535 14.0413C89.3535 12.9389 89.3545 11.8364 89.3529 10.7339C89.3526 10.3707 89.3476 10.3651 88.9827 10.3634C88.3764 10.3605 87.7701 10.3651 87.1638 10.3608C86.867 10.3588 86.8456 10.3393 86.8449 10.037C86.8413 8.85742 86.8413 7.67787 86.8446 6.49799C86.8456 6.17879 86.8827 6.14505 87.2153 6.14208C87.8108 6.13711 88.4062 6.14274 89.0012 6.13777C89.3442 6.13513 89.3519 6.1252 89.3526 5.77987C89.3542 4.56725 89.3525 3.35462 89.3538 2.14165C89.3542 1.74439 89.3561 1.74174 89.7593 1.74108C90.8619 1.73976 91.9643 1.73942 93.0668 1.74108C93.4754 1.74174 93.4982 1.76258 93.4991 2.17242C93.5021 3.2749 93.5005 4.37737 93.5008 5.47985C93.5008 5.5791 93.4978 5.67865 93.5031 5.77756C93.5199 6.08981 93.5639 6.13579 93.8832 6.13777C94.5778 6.14174 95.2721 6.13942 95.9667 6.13976C96.1983 6.13976 96.4298 6.13942 96.6614 6.13976C97.2508 6.14074 97.2614 6.14968 97.2624 6.75633C97.264 7.6825 97.2631 8.60834 97.2627 9.53452C97.2627 9.67775 97.2654 9.82131 97.2588 9.96453C97.2419 10.3244 97.2062 10.3608 96.8508 10.3615C95.8808 10.3634 94.9106 10.3615 93.9404 10.3628C93.5451 10.3634 93.5028 10.4005 93.5021 10.7978C93.4994 12.4734 93.4955 14.1491 93.5067 15.825C93.509 16.1756 93.5471 16.5315 93.6166 16.8752C93.6952 17.2651 93.9715 17.5115 94.3323 17.6673C94.6535 17.8059 94.9916 17.8251 95.334 17.8224C95.6757 17.8198 96.018 17.8278 96.3591 17.8085C96.543 17.798 96.7242 17.7405 96.9064 17.7034C97.14 17.6561 97.2101 17.7001 97.2475 17.9313C97.2614 18.0177 97.2617 18.1069 97.2617 18.1953C97.2627 18.9669 97.2647 19.7386 97.2611 20.5104C97.2591 20.9629 97.2296 21.0009 96.802 21.1487C96.2714 21.3324 95.729 21.4555 95.1636 21.469C95.0221 21.4722 94.8817 21.5232 94.7402 21.5265C94.3906 21.5344 94.0406 21.5325 93.691 21.5239C93.5603 21.5205 93.431 21.4769 93.3003 21.469C92.4777 21.4197 91.7606 21.1131 91.0924 20.6381C90.455 20.1845 90.0055 19.5875 89.7369 18.8769C89.5493 18.3805 89.4074 17.8413 89.3816 17.3147C89.328 16.2262 89.3654 15.1329 89.3654 14.0413C89.3618 14.0413 89.3575 14.0413 89.3535 14.0413Z" fill="white"/>
<path d="M69.8421 13.7414C69.8421 16.0675 69.8421 18.3939 69.8419 20.7198C69.8419 20.841 69.8405 20.9623 69.8349 21.0834C69.8282 21.2267 69.7452 21.3047 69.6073 21.3209C69.52 21.3309 69.4313 21.3302 69.3433 21.3302C68.263 21.3309 67.1827 21.3314 66.1021 21.3302C65.6231 21.3295 65.6211 21.3268 65.6211 20.8538C65.6208 16.5544 65.6208 12.2549 65.6208 7.95551C65.6208 7.49242 65.6185 7.02934 65.6221 6.56658C65.6247 6.19909 65.6572 6.16171 66.017 6.16072C67.1636 6.15708 68.31 6.15741 69.4564 6.16072C69.82 6.16171 69.8409 6.18553 69.8412 6.56526C69.8428 8.54959 69.8421 10.5339 69.8421 12.5182C69.8421 12.9258 69.8421 13.3336 69.8421 13.7414Z" fill="white"/>
<path d="M42.9776 13.7394C42.9776 11.4587 42.9776 9.17833 42.9776 6.89762C42.9776 6.80963 42.9772 6.72131 42.9776 6.63333C42.9796 6.17256 42.9915 6.15899 43.4681 6.15767C44.1842 6.15569 44.9004 6.15701 45.6165 6.15733C46.0022 6.15767 46.3879 6.15238 46.7733 6.16164C47.0487 6.16825 47.0915 6.22018 47.103 6.49903C47.1063 6.5761 47.104 6.65318 47.104 6.73025C47.104 11.4236 47.104 16.1171 47.104 20.8104C47.104 21.3284 47.1036 21.3288 46.5774 21.3291C45.5309 21.3295 44.4839 21.3297 43.4374 21.3288C42.9785 21.3284 42.9772 21.3268 42.9772 20.8789C42.9772 18.499 42.9776 16.1191 42.9776 13.7394Z" fill="white"/>
<path d="M70.2042 2.53418C70.2978 3.91319 69.0276 5.06959 67.7151 5.02824C66.2653 4.98258 65.2309 3.96777 65.2088 2.50871C65.1885 1.18395 66.2467 0.0156395 67.7855 9.29656e-05C68.9862 -0.011815 70.3124 1.12176 70.2042 2.53418Z" fill="white"/>
<path d="M45.0568 0.0151734C46.4047 -0.0774442 47.5885 1.21225 47.5559 2.5433C47.5208 3.97358 46.4209 5.03306 45.0281 5.02711C43.6676 5.02148 42.5538 3.94778 42.5217 2.51155C42.4933 1.24434 43.6811 -0.0678516 45.0568 0.0151734Z" fill="white"/>
<path d="M23.202 21.3274C21.8249 21.4197 20.6566 20.1423 20.6831 18.8516C20.7129 17.3995 21.7763 16.3386 23.2136 16.3254C24.5562 16.3131 25.6775 17.3266 25.7036 18.8787C25.7248 20.1386 24.6128 21.4148 23.202 21.3274Z" fill="white"/>
</g>
<defs>
<clipPath id="clip0_4451_132">
<rect width="97.2632" height="22" fill="white"/>
</clipPath>
</defs>
</svg>
