<svg width="68" height="82" viewBox="0 0 68 82" fill="none" xmlns="http://www.w3.org/2000/svg">
<path d="M57.992 16.5591L33.5366 22.0819C33.2917 22.1283 33.04 22.1257 32.796 22.0744C32.552 22.023 32.3205 21.9239 32.1147 21.7826C31.9088 21.6414 31.7327 21.4608 31.5963 21.2511C31.4599 21.0415 31.366 20.8069 31.3198 20.5607C31.2199 20.0526 31.3179 19.5253 31.5936 19.0876C31.8693 18.6499 32.3017 18.3353 32.8015 18.2086L57.1319 12.714C57.6394 12.5994 58.1714 12.6921 58.6108 12.9716C59.0503 13.2511 59.3613 13.6946 59.4753 14.2044C59.5894 14.7143 59.4972 15.2488 59.219 15.6904C58.9408 16.132 58.4995 16.4445 57.992 16.5591Z" fill="#E2B95D"/>
<path d="M37.9087 5.76885L29.1269 13.413C28.7338 13.7551 28.2215 13.9264 27.7027 13.8891C27.1839 13.8517 26.7011 13.6088 26.3606 13.2138C26.02 12.8188 25.8496 12.3041 25.8867 11.7828C25.9239 11.2616 26.1656 10.7765 26.5587 10.4343L35.3406 2.79019C35.7337 2.448 36.246 2.27674 36.7648 2.31408C37.2836 2.35142 37.7664 2.59431 38.1069 2.9893C38.4475 3.3843 38.6179 3.89905 38.5808 4.42032C38.5436 4.94159 38.3019 5.42667 37.9087 5.76885Z" fill="#E2B95D"/>
<path d="M44.3386 33.7004L32.8312 32.0872C32.316 32.015 31.8506 31.7401 31.5371 31.3231C31.2237 30.906 31.088 30.3809 31.1599 29.8634C31.2317 29.3458 31.5053 28.8781 31.9204 28.5631C32.3354 28.2482 32.858 28.1119 33.3731 28.1841L44.8806 29.7973C45.3957 29.8695 45.8612 30.1444 46.1746 30.5614C46.488 30.9785 46.6237 31.5036 46.5519 32.0211C46.48 32.5387 46.2064 33.0064 45.7914 33.3214C45.3763 33.6363 44.8537 33.7726 44.3386 33.7004Z" fill="#E2B95D"/>
<path d="M60.535 60.1942L51.1086 59.1128C48.8447 58.8517 46.618 59.6348 45.0222 61.2383L38.1936 68.0995C27.6909 62.7298 19.081 54.116 13.7368 43.5258L20.6025 36.6273C22.1984 35.0239 22.9777 32.7865 22.7179 30.5119L21.6417 21.115C21.1963 17.3488 18.0418 14.5148 14.2564 14.5148H7.83605C3.6424 14.5148 0.153874 18.02 0.413657 22.2337C2.38059 54.0787 27.728 79.51 59.3845 81.4863C63.5782 81.7474 67.0667 78.2422 67.0667 74.0285V67.5774C67.1038 63.8112 64.2833 60.6416 60.535 60.1942Z" fill="white"/>
<path d="M50.994 60.1062L50.9946 60.1062L60.4164 61.1871C60.4171 61.1872 60.4179 61.1873 60.4186 61.1874C63.6665 61.5762 66.0987 64.3195 66.0667 67.5676V67.5774V74.0285C66.0667 77.7081 63.0229 80.7109 59.4466 80.4883C28.297 78.5435 3.34779 53.5168 1.41176 22.172C1.18943 18.5659 4.18624 15.5148 7.83605 15.5148H14.2564C17.5281 15.5148 20.2611 17.9624 20.6484 21.2307C20.6485 21.2313 20.6485 21.2318 20.6486 21.2324L21.7244 30.6253C21.7244 30.6255 21.7244 30.6256 21.7244 30.6257C21.9498 32.5997 21.2739 34.5351 19.8938 35.9219L13.0281 42.8204L12.5189 43.332L12.8441 43.9764C18.2842 54.7568 27.0479 63.5242 37.7384 68.9899L38.3878 69.3219L38.9024 68.8049L45.731 61.9437C47.111 60.5571 49.0344 59.8802 50.994 60.1062Z" stroke="#E2B95D" stroke-width="2"/>
</svg>
